# xmcd
#
# Track frame offsets: 
#        150
#        19978
#        44275
#        61065
#        83602
#        104449
#        122820
#        140555
#        156332
#        176260
#        194947
#        216156
#        234555
#        249813
#        262825
#        284503
#        306034
#
# Disc length: 4425 seconds
#
# Revision: 0
# Processed by: cddbd v1.5.2PL0 Copyright (c) Steve Scherf et al.
# Submitted via: ExactAudioCopy v0.99pb4
#
DISCID=ef114711
DTITLE=Various Artist - Hip Hop Studios Compilation Vol. 1
DYEAR=2003
DGENRE=Rap
TTITLE0=01 - Hip Hop Studios Compilation - H-Wood,B-Legit,B-P
TTITLE1=02 - I Babysit My Strap - H-Wood,Hollow Tip,Kaukasian,Sicx
TTITLE2=03 - Sic ND'Vidual - Bread,Young Ridah
TTITLE3=04 - A Friend Of Mine - Ali-c,H-Wood
TTITLE4=05 - Fuck These Niggas - C-Bo,Young Droop,Young Nut,Bread
TTITLE5=06 - Ready 4 War - Spice 1, KauKasian, Young Joker, Loki
TTITLE6=07 - Come N Get Your LUVIN - J-Von,Regii,Terrel Carter, Nfamiz
TTITLE6=z
TTITLE7=08 - 4 Da Cheesez - Marvaless, Lunaticc
TTITLE8=09 - If U Could Fuck With This - Turf Hoggs
TTITLE9=10 - Don't U Worry - Juanita Wynn
TTITLE10=11 - My Niggaz Snap - Triple Beam
TTITLE11=12 - The Luv Them Some Hip Hop - Arguny Ase
TTITLE12=13 - U Can't Fuck With Me - Ali-C
TTITLE13=14 - Tonight - Jasper and Shade
TTITLE14=15 - Young Guns - KD,BP,SB,Marshall,Nuttcase,H-Wood
TTITLE15=16 - Hip Hop Studios Compilation Remix - H-Wood,B-Legit,B-P
TTITLE16=17 - Straight Plug N #2 - H-Wood
EXTD=
EXTT0=
EXTT1=
EXTT2=
EXTT3=
EXTT4=
EXTT5=
EXTT6=
EXTT7=
EXTT8=
EXTT9=
EXTT10=
EXTT11=
EXTT12=
EXTT13=
EXTT14=
EXTT15=
EXTT16=
PLAYORDER=
